<svg xmlns="http://www.w3.org/2000/svg" xmlns:xlink="http://www.w3.org/1999/xlink" width="375" zoomAndPan="magnify" viewBox="0 0 375 374.999991" height="374.999991" preserveAspectRatio="xMidYMid meet" version="1.0"><defs><clipPath id="id1"><path d="M 97 63 L 286 63 L 286 328.1875 L 97 328.1875 Z M 97 63 " clip-rule="nonzero"/></clipPath><clipPath id="id2"><path d="M 188 27.4375 L 195 27.4375 L 195 49 L 188 49 Z M 188 27.4375 " clip-rule="nonzero"/></clipPath><clipPath id="id3"><path d="M 63.453125 152 L 84 152 L 84 159 L 63.453125 159 Z M 63.453125 152 " clip-rule="nonzero"/></clipPath><clipPath id="id4"><path d="M 299 152 L 319.953125 152 L 319.953125 159 L 299 159 Z M 299 152 " clip-rule="nonzero"/></clipPath></defs><g clip-path="url(#id1)"><path fill="rgb(24.308777%, 41.178894%, 7.449341%)" d="M 191.675781 63.679688 C 139.898438 63.679688 97.773438 105.722656 97.773438 157.40625 C 97.773438 175.488281 102.945312 193.042969 112.726562 208.164062 C 121.898438 222.34375 134.671875 233.742188 149.742188 241.261719 L 149.742188 247.742188 L 143.898438 247.742188 C 142.203125 247.742188 140.824219 249.117188 140.824219 250.8125 C 140.824219 252.507812 142.203125 253.882812 143.898438 253.882812 L 149.742188 253.882812 L 149.742188 310.023438 C 149.742188 311.71875 151.117188 313.089844 152.816406 313.089844 L 169.671875 313.089844 L 169.671875 325.003906 C 169.671875 326.699219 171.050781 328.074219 172.75 328.074219 L 210.605469 328.074219 C 212.300781 328.074219 213.679688 326.699219 213.679688 325.003906 L 213.679688 313.089844 L 230.535156 313.089844 C 232.230469 313.089844 233.609375 311.71875 233.609375 310.023438 L 233.609375 293.460938 L 239.449219 293.460938 C 241.148438 293.460938 242.523438 292.085938 242.523438 290.390625 C 242.523438 288.695312 241.148438 287.320312 239.449219 287.320312 L 233.609375 287.320312 L 233.609375 274.238281 L 239.449219 274.238281 C 241.148438 274.238281 242.523438 272.863281 242.523438 271.167969 C 242.523438 269.472656 241.148438 268.101562 239.449219 268.101562 L 233.609375 268.101562 L 233.609375 253.882812 L 239.449219 253.882812 C 241.148438 253.882812 242.523438 252.507812 242.523438 250.8125 C 242.523438 249.117188 241.148438 247.742188 239.449219 247.742188 L 233.609375 247.742188 L 233.609375 241.261719 C 248.675781 233.742188 261.449219 222.339844 270.621094 208.164062 C 280.402344 193.039062 285.574219 175.488281 285.574219 157.40625 C 285.574219 105.722656 243.449219 63.679688 191.675781 63.679688 Z M 207.527344 321.9375 L 175.824219 321.9375 L 175.824219 313.089844 L 207.527344 313.089844 Z M 227.457031 268.101562 L 183.09375 268.101562 C 181.394531 268.101562 180.019531 269.472656 180.019531 271.167969 C 180.019531 272.863281 181.394531 274.238281 183.09375 274.238281 L 227.457031 274.238281 L 227.457031 287.320312 L 183.09375 287.320312 C 181.394531 287.320312 180.019531 288.695312 180.019531 290.390625 C 180.019531 292.085938 181.394531 293.460938 183.09375 293.460938 L 227.457031 293.460938 L 227.457031 306.953125 L 210.628906 306.953125 C 210.621094 306.953125 210.613281 306.949219 210.605469 306.949219 C 210.59375 306.949219 210.585938 306.953125 210.578125 306.953125 L 172.773438 306.953125 C 172.765625 306.953125 172.757812 306.949219 172.746094 306.949219 C 172.738281 306.949219 172.730469 306.953125 172.722656 306.953125 L 155.890625 306.953125 L 155.890625 253.882812 L 227.457031 253.882812 Z M 188.699219 170.171875 C 188.699219 168.15625 190.34375 166.515625 192.367188 166.515625 C 194.386719 166.515625 196.03125 168.15625 196.03125 170.171875 C 196.03125 172.1875 194.386719 173.828125 192.367188 173.828125 C 190.34375 173.828125 188.699219 172.1875 188.699219 170.171875 Z M 229.214844 236.585938 C 229.15625 236.613281 229.105469 236.652344 229.050781 236.683594 C 228.945312 236.742188 228.84375 236.796875 228.75 236.867188 C 228.671875 236.921875 228.601562 236.984375 228.527344 237.050781 C 228.449219 237.117188 228.375 237.179688 228.304688 237.253906 C 228.234375 237.328125 228.175781 237.40625 228.113281 237.484375 C 228.054688 237.5625 227.992188 237.636719 227.941406 237.722656 C 227.886719 237.804688 227.84375 237.890625 227.800781 237.976562 C 227.753906 238.066406 227.710938 238.15625 227.671875 238.25 C 227.636719 238.34375 227.613281 238.4375 227.585938 238.535156 C 227.558594 238.628906 227.53125 238.71875 227.511719 238.816406 C 227.492188 238.929688 227.484375 239.042969 227.480469 239.160156 C 227.472656 239.226562 227.457031 239.289062 227.457031 239.359375 L 227.457031 247.742188 L 195.4375 247.742188 L 195.4375 179.46875 C 199.347656 178.179688 202.183594 174.503906 202.183594 170.171875 C 202.183594 164.769531 197.777344 160.375 192.367188 160.375 C 186.953125 160.375 182.550781 164.769531 182.550781 170.171875 C 182.550781 174.5 185.382812 178.175781 189.289062 179.46875 L 189.289062 247.742188 L 155.890625 247.742188 L 155.890625 239.359375 C 155.890625 239.28125 155.871094 239.207031 155.867188 239.132812 C 155.859375 239.027344 155.855469 238.925781 155.835938 238.828125 C 155.816406 238.71875 155.789062 238.617188 155.757812 238.511719 C 155.734375 238.425781 155.710938 238.34375 155.679688 238.257812 C 155.636719 238.15625 155.589844 238.058594 155.539062 237.960938 C 155.496094 237.882812 155.457031 237.800781 155.410156 237.726562 C 155.355469 237.636719 155.289062 237.554688 155.226562 237.472656 C 155.167969 237.398438 155.113281 237.324219 155.046875 237.257812 C 154.972656 237.179688 154.894531 237.109375 154.8125 237.042969 C 154.742188 236.980469 154.675781 236.921875 154.601562 236.867188 C 154.503906 236.796875 154.398438 236.738281 154.289062 236.679688 C 154.234375 236.648438 154.1875 236.613281 154.132812 236.585938 C 123.632812 222.152344 103.921875 191.070312 103.921875 157.402344 C 103.921875 109.109375 143.289062 69.816406 191.675781 69.816406 C 240.0625 69.816406 279.425781 109.109375 279.425781 157.402344 C 279.425781 191.070312 259.714844 222.152344 229.214844 236.585938 Z M 229.214844 236.585938 " fill-opacity="1" fill-rule="nonzero"/></g><g clip-path="url(#id2)"><path fill="rgb(24.308777%, 41.178894%, 7.449341%)" d="M 191.675781 48.046875 C 193.371094 48.046875 194.75 46.671875 194.75 44.976562 L 194.75 30.683594 C 194.75 28.988281 193.371094 27.613281 191.675781 27.613281 C 189.976562 27.613281 188.597656 28.988281 188.597656 30.683594 L 188.597656 44.976562 C 188.597656 46.671875 189.976562 48.046875 191.675781 48.046875 Z M 191.675781 48.046875 " fill-opacity="1" fill-rule="nonzero"/></g><path fill="rgb(24.308777%, 41.178894%, 7.449341%)" d="M 133.585938 61.335938 C 134.152344 62.320312 135.1875 62.871094 136.25 62.871094 C 136.769531 62.871094 137.300781 62.738281 137.785156 62.457031 C 139.253906 61.609375 139.757812 59.734375 138.910156 58.265625 L 131.75 45.886719 C 130.902344 44.421875 129.023438 43.917969 127.550781 44.765625 C 126.078125 45.613281 125.574219 47.488281 126.425781 48.957031 Z M 133.585938 61.335938 " fill-opacity="1" fill-rule="nonzero"/><path fill="rgb(24.308777%, 41.178894%, 7.449341%)" d="M 81.734375 95.808594 L 94.136719 102.957031 C 94.621094 103.234375 95.148438 103.367188 95.671875 103.367188 C 96.734375 103.367188 97.769531 102.816406 98.335938 101.832031 C 99.1875 100.363281 98.683594 98.488281 97.210938 97.640625 L 84.808594 90.492188 C 83.339844 89.644531 81.457031 90.148438 80.609375 91.617188 C 79.757812 93.082031 80.261719 94.960938 81.734375 95.808594 Z M 81.734375 95.808594 " fill-opacity="1" fill-rule="nonzero"/><g clip-path="url(#id3)"><path fill="rgb(24.308777%, 41.178894%, 7.449341%)" d="M 83.894531 155.621094 C 83.894531 153.925781 82.519531 152.550781 80.820312 152.550781 L 66.496094 152.550781 C 64.800781 152.550781 63.421875 153.925781 63.421875 155.621094 C 63.421875 157.3125 64.800781 158.6875 66.496094 158.6875 L 80.820312 158.6875 C 82.519531 158.6875 83.894531 157.3125 83.894531 155.621094 Z M 83.894531 155.621094 " fill-opacity="1" fill-rule="nonzero"/></g><path fill="rgb(24.308777%, 41.178894%, 7.449341%)" d="M 94.136719 208.28125 L 81.730469 215.425781 C 80.257812 216.273438 79.753906 218.148438 80.601562 219.617188 C 81.171875 220.601562 82.207031 221.152344 83.269531 221.152344 C 83.789062 221.152344 84.320312 221.019531 84.804688 220.742188 L 97.210938 213.597656 C 98.679688 212.75 99.183594 210.875 98.335938 209.40625 C 97.488281 207.9375 95.609375 207.433594 94.136719 208.28125 Z M 94.136719 208.28125 " fill-opacity="1" fill-rule="nonzero"/><path fill="rgb(24.308777%, 41.178894%, 7.449341%)" d="M 301.613281 215.429688 L 289.210938 208.285156 C 287.738281 207.433594 285.859375 207.941406 285.011719 209.40625 C 284.160156 210.875 284.664062 212.753906 286.136719 213.597656 L 298.539062 220.746094 C 299.023438 221.023438 299.550781 221.15625 300.074219 221.15625 C 301.136719 221.15625 302.167969 220.605469 302.738281 219.621094 C 303.589844 218.152344 303.085938 216.277344 301.613281 215.429688 Z M 301.613281 215.429688 " fill-opacity="1" fill-rule="nonzero"/><g clip-path="url(#id4)"><path fill="rgb(24.308777%, 41.178894%, 7.449341%)" d="M 316.847656 152.554688 L 302.527344 152.554688 C 300.832031 152.554688 299.453125 153.929688 299.453125 155.625 C 299.453125 157.320312 300.832031 158.691406 302.527344 158.691406 L 316.847656 158.691406 C 318.546875 158.691406 319.921875 157.320312 319.921875 155.625 C 319.921875 153.929688 318.546875 152.554688 316.847656 152.554688 Z M 316.847656 152.554688 " fill-opacity="1" fill-rule="nonzero"/></g><path fill="rgb(24.308777%, 41.178894%, 7.449341%)" d="M 287.679688 103.367188 C 288.199219 103.367188 288.730469 103.234375 289.214844 102.957031 L 301.613281 95.808594 C 303.085938 94.960938 303.589844 93.085938 302.738281 91.617188 C 301.890625 90.148438 300.007812 89.644531 298.539062 90.496094 L 286.136719 97.640625 C 284.667969 98.488281 284.164062 100.363281 285.011719 101.832031 C 285.582031 102.816406 286.617188 103.367188 287.679688 103.367188 Z M 287.679688 103.367188 " fill-opacity="1" fill-rule="nonzero"/><path fill="rgb(24.308777%, 41.178894%, 7.449341%)" d="M 245.5625 62.457031 C 246.046875 62.738281 246.578125 62.867188 247.097656 62.867188 C 248.160156 62.867188 249.195312 62.320312 249.765625 61.335938 L 256.925781 48.957031 C 257.777344 47.492188 257.273438 45.613281 255.800781 44.765625 C 254.332031 43.917969 252.453125 44.421875 251.601562 45.890625 L 244.4375 58.265625 C 243.589844 59.734375 244.09375 61.609375 245.5625 62.457031 Z M 245.5625 62.457031 " fill-opacity="1" fill-rule="nonzero"/><path fill="rgb(24.308777%, 41.178894%, 7.449341%)" d="M 255.25 127.289062 C 249.839844 127.289062 245.4375 131.683594 245.4375 137.085938 C 245.4375 141.414062 248.265625 145.089844 252.171875 146.382812 L 252.171875 162.503906 L 232.523438 182.113281 C 232.476562 182.164062 232.441406 182.21875 232.394531 182.273438 C 232.308594 182.371094 232.21875 182.46875 232.144531 182.574219 C 232.074219 182.683594 232.019531 182.800781 231.960938 182.914062 C 231.929688 182.976562 231.890625 183.035156 231.863281 183.101562 C 231.804688 183.246094 231.761719 183.394531 231.726562 183.542969 C 231.714844 183.585938 231.695312 183.628906 231.6875 183.671875 C 231.644531 183.878906 231.625 184.089844 231.625 184.300781 L 231.625 208.539062 L 217.847656 214.652344 L 217.847656 174.113281 L 226.53125 165.449219 C 226.675781 165.304688 226.804688 165.144531 226.917969 164.972656 C 226.957031 164.917969 226.980469 164.859375 227.011719 164.800781 C 227.082031 164.683594 227.148438 164.570312 227.203125 164.445312 C 227.230469 164.371094 227.25 164.292969 227.273438 164.214844 C 227.308594 164.101562 227.351562 163.988281 227.375 163.871094 C 227.398438 163.75 227.402344 163.628906 227.410156 163.507812 C 227.417969 163.429688 227.433594 163.355469 227.433594 163.277344 L 227.433594 158.847656 C 231.34375 157.558594 234.171875 153.882812 234.171875 149.550781 C 234.171875 144.152344 229.769531 139.757812 224.359375 139.757812 C 218.945312 139.757812 214.542969 144.152344 214.542969 149.550781 C 214.542969 153.882812 217.375 157.558594 221.285156 158.847656 L 221.285156 162.003906 L 212.597656 170.671875 C 212.457031 170.816406 212.328125 170.972656 212.214844 171.140625 C 212.164062 171.214844 212.132812 171.292969 212.089844 171.371094 C 212.035156 171.46875 211.976562 171.566406 211.933594 171.671875 C 211.890625 171.769531 211.867188 171.875 211.835938 171.976562 C 211.8125 172.066406 211.777344 172.152344 211.757812 172.242188 C 211.71875 172.441406 211.699219 172.640625 211.699219 172.839844 C 211.699219 172.839844 211.699219 172.84375 211.699219 172.84375 L 211.699219 219.371094 C 211.699219 220.410156 212.222656 221.378906 213.097656 221.945312 C 213.601562 222.273438 214.1875 222.441406 214.773438 222.441406 C 215.195312 222.441406 215.621094 222.355469 216.019531 222.175781 L 235.949219 213.339844 C 237.058594 212.847656 237.777344 211.746094 237.777344 210.535156 L 237.777344 185.550781 L 257.425781 165.941406 C 257.523438 165.839844 257.605469 165.730469 257.6875 165.617188 C 257.722656 165.570312 257.765625 165.53125 257.800781 165.480469 C 257.882812 165.355469 257.949219 165.222656 258.011719 165.089844 C 258.035156 165.042969 258.0625 165.003906 258.085938 164.953125 C 258.148438 164.800781 258.195312 164.640625 258.230469 164.480469 C 258.238281 164.445312 258.253906 164.414062 258.261719 164.382812 C 258.300781 164.175781 258.324219 163.964844 258.320312 163.753906 L 258.320312 146.382812 C 262.234375 145.089844 265.066406 141.414062 265.066406 137.085938 C 265.066406 131.683594 260.664062 127.289062 255.25 127.289062 Z M 220.691406 149.550781 C 220.691406 147.535156 222.335938 145.894531 224.359375 145.894531 C 226.378906 145.894531 228.023438 147.535156 228.023438 149.550781 C 228.023438 151.570312 226.378906 153.210938 224.359375 153.210938 C 222.335938 153.210938 220.691406 151.570312 220.691406 149.550781 Z M 255.25 140.742188 C 253.230469 140.742188 251.585938 139.101562 251.585938 137.085938 C 251.585938 135.070312 253.230469 133.425781 255.25 133.425781 C 257.273438 133.425781 258.917969 135.070312 258.917969 137.085938 C 258.917969 139.101562 257.273438 140.742188 255.25 140.742188 Z M 255.25 140.742188 " fill-opacity="1" fill-rule="nonzero"/><path fill="rgb(24.308777%, 41.178894%, 7.449341%)" d="M 172.910156 172.023438 C 172.878906 171.90625 172.847656 171.78125 172.800781 171.667969 C 172.761719 171.578125 172.710938 171.5 172.667969 171.414062 C 172.617188 171.324219 172.574219 171.226562 172.515625 171.140625 C 172.421875 170.996094 172.308594 170.867188 172.191406 170.742188 C 172.167969 170.71875 172.15625 170.695312 172.136719 170.675781 L 163.449219 162.003906 L 163.449219 158.847656 C 167.359375 157.558594 170.191406 153.882812 170.191406 149.550781 C 170.191406 144.148438 165.789062 139.757812 160.375 139.757812 C 154.964844 139.757812 150.5625 144.152344 150.5625 149.550781 C 150.5625 153.882812 153.390625 157.558594 157.300781 158.847656 L 157.300781 163.273438 C 157.300781 163.308594 157.308594 163.34375 157.308594 163.378906 C 157.316406 163.542969 157.328125 163.710938 157.359375 163.875 C 157.378906 163.976562 157.417969 164.070312 157.445312 164.167969 C 157.476562 164.261719 157.496094 164.355469 157.535156 164.445312 C 157.578125 164.554688 157.640625 164.65625 157.699219 164.757812 C 157.738281 164.832031 157.769531 164.90625 157.816406 164.976562 C 157.929688 165.144531 158.058594 165.300781 158.199219 165.445312 L 166.886719 174.113281 L 166.886719 214.652344 L 153.109375 208.539062 L 153.109375 184.300781 C 153.109375 184.089844 153.089844 183.878906 153.046875 183.671875 C 153.039062 183.628906 153.019531 183.59375 153.011719 183.550781 C 152.972656 183.398438 152.933594 183.246094 152.871094 183.101562 C 152.84375 183.039062 152.808594 182.984375 152.78125 182.925781 C 152.71875 182.808594 152.664062 182.6875 152.585938 182.574219 C 152.523438 182.480469 152.449219 182.402344 152.375 182.316406 C 152.320312 182.25 152.273438 182.175781 152.210938 182.113281 L 132.558594 162.5 L 132.558594 146.382812 C 136.46875 145.089844 139.300781 141.414062 139.300781 137.085938 C 139.300781 131.683594 134.894531 127.289062 129.484375 127.289062 C 124.074219 127.289062 119.671875 131.683594 119.671875 137.085938 C 119.671875 141.414062 122.5 145.089844 126.410156 146.382812 L 126.410156 163.761719 C 126.410156 163.96875 126.429688 164.171875 126.472656 164.375 C 126.484375 164.4375 126.507812 164.496094 126.527344 164.558594 C 126.5625 164.691406 126.59375 164.820312 126.648438 164.949219 C 126.675781 165.019531 126.71875 165.082031 126.753906 165.152344 C 126.808594 165.261719 126.863281 165.375 126.933594 165.476562 C 126.992188 165.566406 127.066406 165.644531 127.132812 165.726562 C 127.195312 165.796875 127.242188 165.875 127.3125 165.941406 L 146.957031 185.550781 L 146.957031 210.535156 C 146.957031 211.746094 147.675781 212.847656 148.785156 213.339844 L 168.710938 222.175781 C 169.113281 222.355469 169.539062 222.441406 169.960938 222.441406 C 170.546875 222.441406 171.128906 222.273438 171.636719 221.945312 C 172.507812 221.378906 173.035156 220.410156 173.035156 219.371094 L 173.035156 172.851562 C 173.035156 172.644531 173.015625 172.441406 172.976562 172.238281 C 172.960938 172.164062 172.929688 172.097656 172.910156 172.023438 Z M 160.375 153.210938 C 158.351562 153.210938 156.710938 151.570312 156.710938 149.550781 C 156.710938 147.535156 158.355469 145.894531 160.375 145.894531 C 162.394531 145.894531 164.039062 147.535156 164.039062 149.550781 C 164.039062 151.570312 162.394531 153.210938 160.375 153.210938 Z M 129.484375 140.742188 C 127.460938 140.742188 125.820312 139.101562 125.820312 137.085938 C 125.820312 135.070312 127.464844 133.425781 129.484375 133.425781 C 131.503906 133.425781 133.148438 135.070312 133.148438 137.085938 C 133.148438 139.101562 131.503906 140.742188 129.484375 140.742188 Z M 129.484375 140.742188 " fill-opacity="1" fill-rule="nonzero"/></svg>